<svg xmlns="http://www.w3.org/2000/svg" width="1823.418" height="166.243" viewBox="0 0 1823.418 166.243">
  <path id="Path_652" data-name="Path 652" d="M-781.173,4228.891c159.981,69.932,133.651,107.542,202.7,88.923s150.47-57.8,150.47-57.8l87.368-31.125,74.1,31.125s115.12,17.869,119.537,22.853,43.975,5.211,82.694-22.853,57.577-37.146,113.523-59.3,88.091-35.856,88.091-35.856l61.179,35.856,78.662-35.856s84.8,91.925,124.351,95.155,57.81-9.09,57.81-9.09,38.661,10.178,38.707,9.09,71.039,22.853,71.039,22.853,137.952,37.323,201.823,34.945S949.944,4330,949.944,4330h92.1" transform="translate(781.373 -4164.256)" fill="none" stroke="#52514f" stroke-width="1"/>
</svg>
