<svg id="Instagram" xmlns="http://www.w3.org/2000/svg" width="26.998" height="26.999" viewBox="0 0 26.998 26.999">
  <path id="Path_3" data-name="Path 3" d="M13.5,2.4a41.391,41.391,0,0,1,5.4.15,6.957,6.957,0,0,1,2.55.45A5.268,5.268,0,0,1,24,5.55a6.957,6.957,0,0,1,.45,2.55c0,1.35.15,1.8.15,5.4a41.391,41.391,0,0,1-.15,5.4,6.957,6.957,0,0,1-.45,2.55A5.268,5.268,0,0,1,21.449,24a6.957,6.957,0,0,1-2.55.45c-1.35,0-1.8.15-5.4.15a41.391,41.391,0,0,1-5.4-.15A6.957,6.957,0,0,1,5.55,24,5.268,5.268,0,0,1,3,21.449a6.957,6.957,0,0,1-.45-2.55c0-1.35-.15-1.8-.15-5.4a41.391,41.391,0,0,1,.15-5.4A6.957,6.957,0,0,1,3,5.55a5.387,5.387,0,0,1,1.05-1.5A2.536,2.536,0,0,1,5.55,3,6.957,6.957,0,0,1,8.1,2.55a41.391,41.391,0,0,1,5.4-.15m0-2.4A44.318,44.318,0,0,0,7.95.15a9.26,9.26,0,0,0-3.3.6,5.872,5.872,0,0,0-2.4,1.5,5.872,5.872,0,0,0-1.5,2.4,6.834,6.834,0,0,0-.6,3.3A44.318,44.318,0,0,0,0,13.5a44.318,44.318,0,0,0,.15,5.55,9.26,9.26,0,0,0,.6,3.3,5.872,5.872,0,0,0,1.5,2.4,5.872,5.872,0,0,0,2.4,1.5,9.26,9.26,0,0,0,3.3.6A44.319,44.319,0,0,0,13.5,27a44.319,44.319,0,0,0,5.55-.15,9.26,9.26,0,0,0,3.3-.6,6.293,6.293,0,0,0,3.9-3.9,9.26,9.26,0,0,0,.6-3.3c0-1.5.15-1.95.15-5.55a44.319,44.319,0,0,0-.15-5.55,9.26,9.26,0,0,0-.6-3.3,5.872,5.872,0,0,0-1.5-2.4,5.872,5.872,0,0,0-2.4-1.5,9.26,9.26,0,0,0-3.3-.6A44.318,44.318,0,0,0,13.5,0m0,6.6a6.789,6.789,0,0,0-6.9,6.9,6.9,6.9,0,1,0,6.9-6.9m0,11.4A4.419,4.419,0,0,1,9,13.5,4.419,4.419,0,0,1,13.5,9,4.419,4.419,0,0,1,18,13.5,4.419,4.419,0,0,1,13.5,18M20.7,4.65a1.65,1.65,0,1,0,1.65,1.65A1.665,1.665,0,0,0,20.7,4.65" fill="#52514f" fill-rule="evenodd"/>
</svg>
