<svg xmlns="http://www.w3.org/2000/svg" width="317.212" height="67.48" viewBox="0 0 317.212 67.48">
  <g id="Group_36" data-name="Group 36" transform="translate(-39 -14.52)">
    <g id="Group_14" data-name="Group 14" transform="translate(85 53.405)">
      <text id="CENTER_COPENHAGEN" data-name="CENTER COPENHAGEN" transform="translate(0 21.595)" fill="#35383d" font-size="22" font-family="FuturaPT-Book, Futura PT"><tspan x="0" y="0">CENTER COPENHAGEN</tspan></text>
    </g>
    <path id="Path_644" data-name="Path 644" d="M50.881,17.718,81.66.681c-8.4,0-21.125.454-28.166.454L26.917,16.127,29.3,1.022C17.15.909,18.74.909,5.906.8,5.906.8.114,37.934,0,37.934H24.191L26.576,19.08c10.222,7.95,18.4,14.651,22.942,18.853h29.3L55.083,21.011ZM290.295.8h-13.97c-2.839,0-7.382.227-13.629.114-1.931,1.817-6.7,6.474-6.7,6.474L229.419,32.936c.114-1.817.341-3.862.568-6.133.454-4.2.909-7.609,1.249-9.995l.114-.909s-21.125-1.022-31.346.454l-.681,6.587s11.13.341,13.4.454l-.681,6.019c-3.748.454-11.017,1.136-14.2,1.136A42.705,42.705,0,0,1,187.4,29.416c-3.066-.8-5.338-1.817-6.814-3.294a6.716,6.716,0,0,1-2.158-5,8.076,8.076,0,0,1,1.931-5.224,15.129,15.129,0,0,1,5.679-4.2,36.453,36.453,0,0,1,8.972-2.612,69.005,69.005,0,0,1,11.13-.909c1.476,0,3.18,0,5.111.114,5.224.227,11.471.681,21.011,1.7l.227-5.679C222.946,2.271,210.339,0,202.5,0c-10.676,0-19.421.909-26.122,2.726s-11.925,4.316-15.56,7.5a17.368,17.368,0,0,0-4.2,5.224,11.666,11.666,0,0,0-2.5-4.657c-1.931-2.271-4.884-4.2-8.859-5.906a55.759,55.759,0,0,0-13.856-3.748A110.3,110.3,0,0,0,114.937,0,118.044,118.044,0,0,0,90.859,2.726C83.818,4.429,78.366,6.7,74.845,9.767c-3.634,2.953-5.452,6.474-5.452,10.449A11.958,11.958,0,0,0,72.006,27.6c1.7,2.158,4.657,4.2,8.745,6.019a54.353,54.353,0,0,0,14.424,3.862,121.451,121.451,0,0,0,17.377,1.249,125.935,125.935,0,0,0,17.6-1.249,58.624,58.624,0,0,0,14.537-3.862,25.962,25.962,0,0,0,9.313-6.474,12.509,12.509,0,0,0,2.044-3.18,10.958,10.958,0,0,0,1.59,3.294,20.108,20.108,0,0,0,5.679,5.452,34.531,34.531,0,0,0,9.2,3.634,87.876,87.876,0,0,0,12.493,1.931c4.657.341,9.427.568,14.31.568,2.953,0,6.36-.114,10.108-.227s8.745-.341,11.357-.454c1.7-.114,2.158-.114,4.543-.114h24.078c3.294-3.862,6.474-7.382,9.654-10.562h26.917a98.544,98.544,0,0,1,6.814,10.562h24.418ZM137.538,19.762c-1.136,6.133-11.585,10.79-24.191,10.79H111.87c-9.086-.227-16.7-2.953-19.989-7.042A6.416,6.416,0,0,1,90.4,18.172c1.136-6.133,11.585-10.79,24.191-10.79h1.476c9.086.227,16.7,2.953,19.989,7.042A6.825,6.825,0,0,1,137.538,19.762Zm127.771-.341,3.861-3.975c1.59-1.7,3.862-4.2,6.247-6.928A122.925,122.925,0,0,0,282,19.421Z" transform="translate(39 14.52)" fill="#35393e"/>
  </g>
</svg>
