<svg xmlns="http://www.w3.org/2000/svg" xmlns:xlink="http://www.w3.org/1999/xlink" width="34.813" height="28.137" viewBox="0 0 34.813 28.137">
  <defs>
    <clipPath id="clip-path">
      <rect width="34.813" height="28.137" fill="none"/>
    </clipPath>
  </defs>
  <g id="Twitter" clip-path="url(#clip-path)">
    <path id="Path_2" data-name="Path 2" d="M48.942,30.026C61.995,30.026,69.1,19.276,69.1,9.87V8.91a15.6,15.6,0,0,0,3.455-3.647,15.935,15.935,0,0,1-4.031,1.152,7.468,7.468,0,0,0,3.071-3.839A17.607,17.607,0,0,1,67.178,4.3,6.855,6.855,0,0,0,61.995,2a7.212,7.212,0,0,0-7.1,7.1,3.742,3.742,0,0,0,.192,1.536A19.846,19.846,0,0,1,40.5,3.152a7.351,7.351,0,0,0-.96,3.647,7.627,7.627,0,0,0,3.071,5.951,6.471,6.471,0,0,1-3.263-.96h0A7.015,7.015,0,0,0,45.1,18.7a5.918,5.918,0,0,1-1.92.192,3.267,3.267,0,0,1-1.344-.192,7.272,7.272,0,0,0,6.719,4.991,14.493,14.493,0,0,1-8.83,3.071A5.315,5.315,0,0,1,38,26.571a18.119,18.119,0,0,0,10.942,3.455" transform="translate(-38 -2)" fill="#52514f" fill-rule="evenodd"/>
  </g>
</svg>
